# xmcd
#
# Track frame offsets:
#	150
#	10890
#	22142
#	38175
#	56892
#	74802
#	86960
#	101145
#	115705
#	127387
#	143795
#	164560
#	181735
#	197482
#	212972
#	231515
#	243865
#	264195
#	279290
#	295717
#
# Disc length: 4127
#
# Revision: 2
# Processed by: cddbd v1.5.1PL0 Copyright (c) Steve Scherf et al.
# Submitted via: dBpowerAMP V4.0
# Normalized: r0:TDELIM( - );r1:TSWAP
#
DISCID=36101d14
DTITLE=Various Artist - O Sister, Whare Art Thou (Disk 2)
DYEAR=2002
DGENRE=Country
TTITLE0=Forester Sisters (The) - I've Just Seen A Face
TTITLE1=Charlene Carter - My Dixie Darlin'
TTITLE2=Sharon Shannon - Man of Constant Sorrow
TTITLE3=Lynn Miles - You Don't Love Me Anymore
TTITLE4=Chalee Tennison - Go Back
TTITLE5=Stacey Earle - Promise You Anything
TTITLE6=K.D. Lang - Big Boned Gal
TTITLE7=Wynonna - Girls With Guitars
TTITLE8=Martina McBride - My Baby Loves Me
TTITLE9=Eva Cassidy - Penny To My Name
TTITLE10=Nanci Griffith - Trouble In The Fields
TTITLE11=Maria McKee - Wayfarin' Stranger
TTITLE12=Oh Susanna - Sleepy Little Sailor
TTITLE13=Linda Gail Lewis - The Dark End Of The Street
TTITLE14=Be Good Tanyas (The) - The Littlelest Birds
TTITLE15=Rhonda Vincent - Is The Grass Any Bluer
TTITLE16=Hazel Dickens - West Virginia, My Home
TTITLE17=Gillian Welsch, David Rawlings And David Steele - Wind And Rain
TTITLE18=Suzanne Thomas - Leaving This Land
TTITLE19=Dolly Parton - I Will Always Love You
EXTD=
EXTT0=
EXTT1=
EXTT2=
EXTT3=
EXTT4=
EXTT5=
EXTT6=
EXTT7=
EXTT8=
EXTT9=
EXTT10=
EXTT11=
EXTT12=
EXTT13=
EXTT14=
EXTT15=
EXTT16=
EXTT17=
EXTT18=
EXTT19=
PLAYORDER=
